<svg xmlns="http://www.w3.org/2000/svg" width="512" height="512" viewBox="0 0 512 512" role="img" aria-label="Digli">
  <rect width="512" height="512" rx="112" fill="#f4eee4"/>
  <circle cx="256" cy="256" r="176" fill="none" stroke="#8a7024" stroke-width="22"/>
  <circle cx="256" cy="256" r="140" fill="none" stroke="#a88a35" stroke-width="16" opacity="0.75"/>
  <circle cx="256" cy="256" r="110" fill="none" stroke="#c9a84c" stroke-width="12" opacity="0.45"/>
  <path fill="#c9a84c" d="M252.46685178477554 316.0Q241.14998694407834 316.0 232.91593356934226 310.8566956401445Q224.6818801946062 305.71339128028893 220.17256397421772 296.5124951095718Q215.66324775382927 287.3115989388547 215.66324775382927 275.170525331753Q215.66324775382927 262.91850017248004 220.2280397503034 253.49570089742028Q224.79283174677752 244.07290162236052 233.30426400194193 238.70769415816233Q241.8156962571063 233.3424866939641 253.5763673064888 233.3424866939641Q261.83415593567184 233.3424866939641 268.6099930564586 236.58377826522394Q275.38583017724534 239.82506983648375 279.06300975634883 245.73703946838577V196.0H298.33675224617076V313.98705500731074H280.4895048367373L279.26905711093053 301.7509823381878Q275.7662327349645 308.4237570855281 268.586219105856 312.21187854276405Q261.4062054767475 316.0 252.46685178477554 316.0Z"/>
</svg>
